<svg id="round-svgator-icon-separated" xmlns="http://www.w3.org/2000/svg" xmlns:xlink="http://www.w3.org/1999/xlink" viewBox="0 0 256 256" shape-rendering="geometricPrecision" text-rendering="geometricPrecision" width="256" height="256"><style><![CDATA[#round-svgator-icon-separated-g1_ts {animation: round-svgator-icon-separated-g1_ts__ts 5400ms linear infinite normal forwards}@keyframes round-svgator-icon-separated-g1_ts__ts { 0% {transform: translate(128px,128px) scale(0.951085,0.951085)} 22.222222% {transform: translate(128px,128px) scale(0.951085,0.951085);animation-timing-function: cubic-bezier(0.175000,0.885000,0.320000,1.275000)} 44.444444% {transform: translate(128px,128px) scale(0.978939,0.978939);animation-timing-function: cubic-bezier(0,0,0.580000,1)} 100% {transform: translate(128px,128px) scale(0.951085,0.951085)} }#round-svgator-icon-separated-circle3_to {animation: round-svgator-icon-separated-circle3_to__to 5400ms linear infinite normal forwards}@keyframes round-svgator-icon-separated-circle3_to__to { 0% {transform: translate(130.829320px,80.572406px)} 35.185185% {transform: translate(130.829320px,80.572406px);animation-timing-function: cubic-bezier(0.165000,0.840000,0.440000,1)} 46.296296% {transform: translate(193.318644px,51.466242px)} 100% {transform: translate(193.318644px,51.466242px)} }#round-svgator-icon-separated-circle3_ts {animation: round-svgator-icon-separated-circle3_ts__ts 5400ms linear infinite normal forwards}@keyframes round-svgator-icon-separated-circle3_ts__ts { 0% {transform: scale(0.360986,0.360986)} 35.185185% {transform: scale(0.360986,0.360986)} 46.296296% {transform: scale(0,0)} 100% {transform: scale(0,0)} }#round-svgator-icon-separated-circle4_to {animation: round-svgator-icon-separated-circle4_to__to 5400ms linear infinite normal forwards}@keyframes round-svgator-icon-separated-circle4_to__to { 0% {transform: translate(128px,80.572406px)} 35.185185% {transform: translate(128px,80.572406px);animation-timing-function: cubic-bezier(0.165000,0.840000,0.440000,1)} 46.296296% {transform: translate(86.767398px,17.438716px)} 100% {transform: translate(86.767398px,17.438716px)} }#round-svgator-icon-separated-circle4_ts {animation: round-svgator-icon-separated-circle4_ts__ts 5400ms linear infinite normal forwards}@keyframes round-svgator-icon-separated-circle4_ts__ts { 0% {transform: scale(0.237754,0.237754)} 35.185185% {transform: scale(0.237754,0.237754)} 46.296296% {transform: scale(0,0)} 100% {transform: scale(0,0)} }#round-svgator-icon-separated-circle5_to {animation: round-svgator-icon-separated-circle5_to__to 5400ms linear infinite normal forwards}@keyframes round-svgator-icon-separated-circle5_to__to { 0% {transform: translate(120.902207px,90.072717px)} 35.185185% {transform: translate(120.902207px,90.072717px);animation-timing-function: cubic-bezier(0.165000,0.840000,0.440000,1)} 46.296296% {transform: translate(127.393647px,37.320000px)} 100% {transform: translate(127.393647px,37.320000px)} }#round-svgator-icon-separated-circle5_ts {animation: round-svgator-icon-separated-circle5_ts__ts 5400ms linear infinite normal forwards}@keyframes round-svgator-icon-separated-circle5_ts__ts { 0% {transform: scale(0.520304,0.520304)} 35.185185% {transform: scale(0.520304,0.520304)} 46.296296% {transform: scale(0,0)} 100% {transform: scale(0,0)} }#round-svgator-icon-separated-circle6_to {animation: round-svgator-icon-separated-circle6_to__to 5400ms linear infinite normal forwards}@keyframes round-svgator-icon-separated-circle6_to__to { 0% {transform: translate(108.885789px,103.260734px)} 33.333333% {transform: translate(108.885789px,103.260734px);animation-timing-function: cubic-bezier(0.165000,0.840000,0.440000,1)} 44.444444% {transform: translate(160.541438px,26.955004px)} 100% {transform: translate(160.541438px,26.955004px)} }#round-svgator-icon-separated-circle6_ts {animation: round-svgator-icon-separated-circle6_ts__ts 5400ms linear infinite normal forwards}@keyframes round-svgator-icon-separated-circle6_ts__ts { 0% {transform: scale(0.416071,0.416071)} 33.333333% {transform: scale(0.416071,0.416071)} 44.444444% {transform: scale(0,0)} 100% {transform: scale(0,0)} }#round-svgator-icon-separated-circle7_to {animation: round-svgator-icon-separated-circle7_to__to 5400ms linear infinite normal forwards}@keyframes round-svgator-icon-separated-circle7_to__to { 0% {transform: translate(124.787263px,87.201099px)} 33.333333% {transform: translate(124.787263px,87.201099px);animation-timing-function: cubic-bezier(0.165000,0.840000,0.440000,1)} 44.444444% {transform: translate(193.318644px,2.095021px)} 100% {transform: translate(193.318644px,2.095021px)} }#round-svgator-icon-separated-circle7_ts {animation: round-svgator-icon-separated-circle7_ts__ts 5400ms linear infinite normal forwards}@keyframes round-svgator-icon-separated-circle7_ts__ts { 0% {transform: scale(0.416071,0.416071)} 33.333333% {transform: scale(0.416071,0.416071)} 44.444444% {transform: scale(0,0)} 100% {transform: scale(0,0)} }#round-svgator-icon-separated-big-gear_tr {animation: round-svgator-icon-separated-big-gear_tr__tr 5400ms linear infinite normal forwards}@keyframes round-svgator-icon-separated-big-gear_tr__tr { 0% {transform: translate(147.430016px,145.539997px) rotate(0deg);animation-timing-function: cubic-bezier(0.550000,0.085000,0.680000,0.530000)} 44.444444% {transform: translate(147.430016px,145.539997px) rotate(360deg);animation-timing-function: cubic-bezier(0.250000,0.460000,0.450000,0.940000)} 100% {transform: translate(147.430016px,145.539997px) rotate(720deg)} }#round-svgator-icon-separated-small-gear_tr {animation: round-svgator-icon-separated-small-gear_tr__tr 5400ms linear infinite normal forwards}@keyframes round-svgator-icon-separated-small-gear_tr__tr { 0% {transform: translate(69.609997px,99.315010px) rotate(0deg);animation-timing-function: cubic-bezier(0.550000,0.085000,0.680000,0.530000)} 44.444444% {transform: translate(69.609997px,99.315010px) rotate(-360deg);animation-timing-function: cubic-bezier(0.250000,0.460000,0.450000,0.940000)} 100% {transform: translate(69.609997px,99.315010px) rotate(-720deg)} }]]></style><defs><linearGradient id="round-svgator-icon-separated-circle3-fill" x1="0" y1="0.500000" x2="1" y2="0.500000" spreadMethod="pad" gradientUnits="objectBoundingBox"><stop id="round-svgator-icon-separated-circle3-fill-0" offset="1%" stop-color="rgb(255,109,91)"/><stop id="round-svgator-icon-separated-circle3-fill-1" offset="100%" stop-color="rgb(255,46,74)"/></linearGradient><linearGradient id="round-svgator-icon-separated-circle5-fill" x1="0" y1="0.052536" x2="0.928141" y2="1.056627" spreadMethod="pad" gradientUnits="objectBoundingBox"><stop id="round-svgator-icon-separated-circle5-fill-0" offset="0%" stop-color="rgb(73,193,255)"/><stop id="round-svgator-icon-separated-circle5-fill-1" offset="100%" stop-color="rgb(55,65,245)"/></linearGradient><linearGradient id="round-svgator-icon-separated-circle7-fill" x1="-0.137393" y1="-0" x2="1" y2="1" spreadMethod="pad" gradientUnits="objectBoundingBox"><stop id="round-svgator-icon-separated-circle7-fill-0" offset="0%" stop-color="rgb(255,204,60)"/><stop id="round-svgator-icon-separated-circle7-fill-1" offset="100%" stop-color="rgb(255,109,91)"/></linearGradient></defs><g id="round-svgator-icon-separated-g1_ts" transform="translate(128,128) scale(0.951085,0.951085)"><g id="round-svgator-icon-separated-g1" transform="translate(-128,-128)"><circle id="round-svgator-icon-separated-circle1" r="128" transform="matrix(1 0 0 1 128 128)" fill="rgb(25,33,50)" stroke="none" stroke-width="1"/><circle id="round-svgator-icon-separated-circle2" r="18.690000" transform="matrix(1 0 0 1 147.34999999999999 145.53999999999999)" fill="rgb(221,245,255)" stroke="none" stroke-width="1"/><g id="round-svgator-icon-separated-circle3_to" transform="translate(130.829320,80.572406)"><g id="round-svgator-icon-separated-circle3_ts" transform="scale(0.360986,0.360986)"><circle id="round-svgator-icon-separated-circle3" r="27.500000" transform="translate(0,0)" fill="url(#round-svgator-icon-separated-circle3-fill)" stroke="none" stroke-width="1"/></g></g><g id="round-svgator-icon-separated-circle4_to" transform="translate(128,80.572406)"><g id="round-svgator-icon-separated-circle4_ts" transform="scale(0.237754,0.237754)"><circle id="round-svgator-icon-separated-circle4" r="27.500000" transform="translate(0,0)" fill="rgb(122,56,255)" stroke="none" stroke-width="1"/></g></g><g id="round-svgator-icon-separated-circle5_to" transform="translate(120.902207,90.072717)"><g id="round-svgator-icon-separated-circle5_ts" transform="scale(0.520304,0.520304)"><circle id="round-svgator-icon-separated-circle5" r="27.500000" transform="translate(0,0)" fill="url(#round-svgator-icon-separated-circle5-fill)" stroke="none" stroke-width="1"/></g></g><g id="round-svgator-icon-separated-circle6_to" transform="translate(108.885789,103.260734)"><g id="round-svgator-icon-separated-circle6_ts" transform="scale(0.416071,0.416071)"><circle id="round-svgator-icon-separated-circle6" r="27.500000" transform="translate(0,0)" fill="rgb(60,255,252)" stroke="none" stroke-width="1"/></g></g><g id="round-svgator-icon-separated-circle7_to" transform="translate(124.787263,87.201099)"><g id="round-svgator-icon-separated-circle7_ts" transform="scale(0.416071,0.416071)"><circle id="round-svgator-icon-separated-circle7" r="27.500000" transform="translate(0,0)" fill="url(#round-svgator-icon-separated-circle7-fill)" stroke="none" stroke-width="1"/></g></g><g id="round-svgator-icon-separated-g2"><path id="round-svgator-icon-separated-path1" d="M235.630000,83.910000C220.550000,65.400000,138.630000,68.270000,124.630000,70.910000C86.210000,77.210000,62,92.130000,54.110000,109.510000C48.110000,122.760000,44.800000,137.960000,51.490000,158.680000C54.175293,166.509878,58.318195,173.760806,63.700000,180.050000C99.610000,222.340000,117,230.110000,165.490000,205.410000C171.940000,202.130000,179.830000,199.490000,188.620000,190.700000C223.140000,162.380000,250.250000,101.120000,235.630000,83.910000Z" fill="rgb(221,245,255)" stroke="none" stroke-width="1"/><circle id="round-svgator-icon-separated-circle8" r="62" transform="matrix(1 0 0 1 69.62000000000000 99.31999999999999)" fill="rgb(25,33,50)" stroke="none" stroke-width="1"/></g><g id="round-svgator-icon-separated-big-gear_tr" transform="translate(147.430016,145.539997) rotate(0)"><path id="round-svgator-icon-separated-big-gear" d="M211.850000,135.730000C211.351162,133.873016,209.454476,132.759937,207.590000,133.230000C199.079693,134.800559,190.546027,130.606872,186.590000,122.910000L186.590000,122.910000C181.888733,115.621170,182.531191,106.110355,188.170000,99.520000C189.512930,98.151027,189.512930,95.958973,188.170000,94.590000C183.057267,90.442300,177.319409,87.131219,171.170000,84.780000C169.313060,84.280980,167.400277,85.368904,166.880000,87.220000C163.984967,95.394318,156.071537,100.702453,147.410000,100.280000C138.752075,100.697928,130.843966,95.390635,127.950000,87.220000C127.429723,85.368904,125.516940,84.280980,123.660000,84.780000C117.510591,87.131219,111.772733,90.442300,106.660000,94.590000C105.311700,95.956774,105.311700,98.153226,106.660000,99.520000C112.298809,106.110355,112.941267,115.621170,108.240000,122.910000L108.240000,122.910000C104.281554,130.604408,95.749835,134.797139,87.240000,133.230000C85.377978,132.760446,83.484277,133.874388,82.990000,135.730000C81.950003,142.228655,81.950003,148.851345,82.990000,155.350000C83.484277,157.205612,85.377978,158.319554,87.240000,157.850000C95.749835,156.282861,104.281554,160.475592,108.240000,168.170000C112.942973,175.454851,112.300344,184.964141,106.660000,191.550000C105.310517,192.920183,105.310517,195.119817,106.660000,196.490000C109.216300,198.555140,111.927627,200.420640,114.770000,202.070000C117.619075,203.701951,120.587549,205.115987,123.650000,206.300000C125.506940,206.799020,127.419723,205.711096,127.940000,203.860000C130.841380,195.693864,138.743142,190.386771,147.400000,190.790000C156.060472,190.382260,163.967544,195.690191,166.870000,203.860000C167.390277,205.711096,169.303060,206.799020,171.160000,206.300000C174.221596,205.114002,177.189922,203.700036,180.040000,202.070000C182.882373,200.420640,185.593700,198.555140,188.150000,196.490000C189.494128,195.117627,189.494128,192.922373,188.150000,191.550000C182.741528,184.839108,182.017292,175.492927,186.327353,168.028946C190.637415,160.564966,199.094156,156.520322,207.610000,157.850000C209.474476,158.320063,211.371162,157.206984,211.870000,155.350000C212.909997,148.851345,212.909997,142.228655,211.870000,135.730000ZM147.350000,164.230000C137.029102,164.224478,128.666320,155.854236,128.670001,145.533337C128.673682,135.212438,137.042432,126.848163,147.363332,126.850003C157.684231,126.851843,166.049999,135.219100,166.050000,145.540000C166.050001,150.498629,164.079509,155.254020,160.572291,158.759363C157.065073,162.264705,152.308629,164.232653,147.350000,164.230000Z" transform="translate(-147.430016,-145.539997)" fill="rgb(25,33,50)" stroke="none" stroke-width="1"/></g><g id="round-svgator-icon-separated-small-gear_tr" transform="translate(69.609997,99.315010) rotate(0)"><path id="round-svgator-icon-separated-small-gear" d="M110.520000,111.840000L110.250000,111.670000L102.940000,107.410000C100.942012,106.199642,99.741304,104.015498,99.790000,101.680000L99.790000,98.160000C99.758528,95.810805,100.981990,93.623056,103,92.420000L110.220000,88.070000C113.401100,86.324732,114.565143,82.331169,112.820000,79.150000C112.760000,79.040000,112.690000,78.930000,112.620000,78.820000L109,72.900000C108.182789,71.362087,106.787578,70.212250,105.121865,69.703908C103.456152,69.195565,101.656664,69.370443,100.120000,70.190000L99.750000,70.400000L92.440000,74.750000C90.406136,75.919508,87.903864,75.919508,85.870000,74.750000L82.540000,72.810000C80.510463,71.614501,79.274766,69.425335,79.300000,67.070000L79.300000,58.460000C79.297837,54.936434,76.520375,52.039938,73,51.890000L66.110000,51.890000C62.481489,51.890000,59.540000,54.831489,59.540000,58.460000L59.540000,67.720000C59.563716,70.072312,58.327948,72.257791,56.300000,73.450000L53,75.400000C50.966136,76.569508,48.463864,76.569508,46.430000,75.400000L39.120000,70.400000C37.639281,69.453520,35.841098,69.139704,34.127317,69.528688C32.413536,69.917671,30.927026,70.977025,30,72.470000L29.800000,72.810000L26.660000,78.910000C25.725811,80.391939,25.422145,82.185593,25.816468,83.892450C26.210791,85.599307,27.270446,87.078001,28.760000,88L29.090000,88.200000L36.310000,92.550000C38.275584,93.748306,39.470609,95.887969,39.460000,98.190000L39.460000,101.890000C39.420241,104.178008,38.192843,106.280495,36.220000,107.440000L29,111.760000C25.818900,113.505268,24.654857,117.498831,26.400000,120.680000C26.460720,120.796728,26.527477,120.910215,26.600000,121.020000L30,126.940000C31.745268,130.121100,35.738831,131.285143,38.920000,129.540000L39.250000,129.340000L46.490000,125C48.521093,123.820159,51.028907,123.820159,53.060000,125L56.390000,126.940000C58.422609,128.132480,59.659406,130.323595,59.630000,132.680000L59.630000,140.170000C59.630000,143.798511,62.571489,146.740000,66.200000,146.740000L73,146.740000C76.628511,146.740000,79.570000,143.798511,79.570000,140.170000L79.570000,132.490000C79.540612,130.136184,80.772773,127.946523,82.800000,126.750000L86.140000,124.810000C88.173864,123.640492,90.676136,123.640492,92.710000,124.810000L99.830000,129.250000C102.904314,131.175221,106.956822,130.249317,108.890000,127.180000C108.960000,127.070000,109.020000,126.960000,109.080000,126.850000L112.510000,120.920000C113.453655,119.452995,113.774197,117.670569,113.400774,115.966708C113.027351,114.262847,111.990713,112.777864,110.520000,111.840000ZM69.620000,113.290000C61.888014,113.290000,55.620000,107.021986,55.620000,99.290000C55.620000,91.558014,61.888014,85.290000,69.620000,85.290000C77.351986,85.290000,83.620000,91.558014,83.620000,99.290000C83.620000,107.021986,77.351986,113.290000,69.620000,113.290000Z" transform="translate(-69.609997,-99.315010)" fill="rgb(60,255,252)" stroke="none" stroke-width="1"/></g></g></g></svg>